<svg id="visual" viewBox="0 0 900 600" width="900" height="600" xmlns="http://www.w3.org/2000/svg" xmlns:xlink="http://www.w3.org/1999/xlink" version="1.1"><g stroke-width="1" stroke-linejoin="bevel"><path d="M483 313L488 403L555.5 406Z" fill="#1d4e6b" stroke="#1d4e6b"></path><path d="M555.5 406L602.5 309L483 313Z" fill="#297ea6" stroke="#297ea6"></path><path d="M317.5 328L457 456L488 403Z" fill="#0c2435" stroke="#0c2435"></path><path d="M488 403L526.5 515L555.5 406Z" fill="#297ea6" stroke="#297ea6"></path><path d="M602.5 309L520.5 219L483 313Z" fill="#246688" stroke="#246688"></path><path d="M667 512L675 373L555.5 406Z" fill="#081a28" stroke="#081a28"></path><path d="M555.5 406L675 373L602.5 309Z" fill="#277297" stroke="#277297"></path><path d="M602.5 309L673 181L520.5 219Z" fill="#0c2435" stroke="#0c2435"></path><path d="M457 456L526.5 515L488 403Z" fill="#205a7a" stroke="#205a7a"></path><path d="M675 373L689 329L602.5 309Z" fill="#205a7a" stroke="#205a7a"></path><path d="M520.5 219L469 190L483 313Z" fill="#205a7a" stroke="#205a7a"></path><path d="M483 313L317.5 328L488 403Z" fill="#246688" stroke="#246688"></path><path d="M306.5 210L317.5 328L483 313Z" fill="#0c2435" stroke="#0c2435"></path><path d="M526.5 515L667 512L555.5 406Z" fill="#15384f" stroke="#15384f"></path><path d="M675 373L745.5 379L689 329Z" fill="#277297" stroke="#277297"></path><path d="M667 512L745.5 379L675 373Z" fill="#246688" stroke="#246688"></path><path d="M294.5 388L364.5 513L457 456Z" fill="#112e42" stroke="#112e42"></path><path d="M457 456L467 600L526.5 515Z" fill="#277297" stroke="#277297"></path><path d="M821.5 177L673 181L689 329Z" fill="#19435d" stroke="#19435d"></path><path d="M689 329L673 181L602.5 309Z" fill="#1d4e6b" stroke="#1d4e6b"></path><path d="M520.5 219L574.5 94L469 190Z" fill="#246688" stroke="#246688"></path><path d="M317.5 328L294.5 388L457 456Z" fill="#277297" stroke="#277297"></path><path d="M364.5 513L467 600L457 456Z" fill="#112e42" stroke="#112e42"></path><path d="M526.5 515L589.5 600L667 512Z" fill="#19435d" stroke="#19435d"></path><path d="M467 600L589.5 600L526.5 515Z" fill="#15384f" stroke="#15384f"></path><path d="M469 190L306.5 210L483 313Z" fill="#19435d" stroke="#19435d"></path><path d="M317.5 328L251 258L294.5 388Z" fill="#00101c" stroke="#00101c"></path><path d="M673 181L574.5 94L520.5 219Z" fill="#297ea6" stroke="#297ea6"></path><path d="M469 190L355.5 71L306.5 210Z" fill="#00101c" stroke="#00101c"></path><path d="M306.5 210L263 244L317.5 328Z" fill="#19435d" stroke="#19435d"></path><path d="M667 512L752.5 527L745.5 379Z" fill="#246688" stroke="#246688"></path><path d="M678 600L752.5 527L667 512Z" fill="#1d4e6b" stroke="#1d4e6b"></path><path d="M900 355L811.5 333L745.5 379Z" fill="#112e42" stroke="#112e42"></path><path d="M745.5 379L811.5 333L689 329Z" fill="#00101c" stroke="#00101c"></path><path d="M589.5 600L678 600L667 512Z" fill="#0c2435" stroke="#0c2435"></path><path d="M263 244L251 258L317.5 328Z" fill="#00101c" stroke="#00101c"></path><path d="M364.5 513L365.5 600L467 600Z" fill="#205a7a" stroke="#205a7a"></path><path d="M222 515L365.5 600L364.5 513Z" fill="#297ea6" stroke="#297ea6"></path><path d="M574.5 94L448 57L469 190Z" fill="#246688" stroke="#246688"></path><path d="M306.5 210L233 56L263 244Z" fill="#277297" stroke="#277297"></path><path d="M251 258L220 419L294.5 388Z" fill="#1d4e6b" stroke="#1d4e6b"></path><path d="M294.5 388L222 515L364.5 513Z" fill="#15384f" stroke="#15384f"></path><path d="M673 181L706 80L574.5 94Z" fill="#15384f" stroke="#15384f"></path><path d="M574.5 94L458 0L448 57Z" fill="#00101c" stroke="#00101c"></path><path d="M811.5 122L706 80L673 181Z" fill="#081a28" stroke="#081a28"></path><path d="M448 57L355.5 71L469 190Z" fill="#205a7a" stroke="#205a7a"></path><path d="M263 244L114.5 217L251 258Z" fill="#246688" stroke="#246688"></path><path d="M220 419L222 515L294.5 388Z" fill="#0c2435" stroke="#0c2435"></path><path d="M811.5 333L821.5 177L689 329Z" fill="#19435d" stroke="#19435d"></path><path d="M706 80L586.5 0L574.5 94Z" fill="#0c2435" stroke="#0c2435"></path><path d="M448 57L349.5 0L355.5 71Z" fill="#112e42" stroke="#112e42"></path><path d="M586.5 0L458 0L574.5 94Z" fill="#1d4e6b" stroke="#1d4e6b"></path><path d="M821.5 177L811.5 122L673 181Z" fill="#081a28" stroke="#081a28"></path><path d="M706 80L696 0L586.5 0Z" fill="#19435d" stroke="#19435d"></path><path d="M811.5 333L900 273L821.5 177Z" fill="#0c2435" stroke="#0c2435"></path><path d="M821.5 177L900 99L811.5 122Z" fill="#297ea6" stroke="#297ea6"></path><path d="M900 515L900 355L745.5 379Z" fill="#112e42" stroke="#112e42"></path><path d="M678 600L815.5 600L752.5 527Z" fill="#00101c" stroke="#00101c"></path><path d="M752.5 527L900 515L745.5 379Z" fill="#112e42" stroke="#112e42"></path><path d="M900 355L900 273L811.5 333Z" fill="#1d4e6b" stroke="#1d4e6b"></path><path d="M752.5 0L696 0L706 80Z" fill="#297ea6" stroke="#297ea6"></path><path d="M900 273L900 232L821.5 177Z" fill="#1d4e6b" stroke="#1d4e6b"></path><path d="M458 0L349.5 0L448 57Z" fill="#246688" stroke="#246688"></path><path d="M355.5 71L233 56L306.5 210Z" fill="#246688" stroke="#246688"></path><path d="M815.5 600L900 515L752.5 527Z" fill="#112e42" stroke="#112e42"></path><path d="M251 0L233 56L355.5 71Z" fill="#297ea6" stroke="#297ea6"></path><path d="M78.5 403L138.5 527L220 419Z" fill="#0c2435" stroke="#0c2435"></path><path d="M138.5 527L222 515L220 419Z" fill="#297ea6" stroke="#297ea6"></path><path d="M138.5 527L182 600L222 515Z" fill="#246688" stroke="#246688"></path><path d="M222 515L182 600L365.5 600Z" fill="#277297" stroke="#277297"></path><path d="M78.5 403L220 419L71.5 296Z" fill="#297ea6" stroke="#297ea6"></path><path d="M811.5 122L752.5 0L706 80Z" fill="#19435d" stroke="#19435d"></path><path d="M900 0L752.5 0L811.5 122Z" fill="#246688" stroke="#246688"></path><path d="M233 56L114.5 217L263 244Z" fill="#19435d" stroke="#19435d"></path><path d="M71.5 296L220 419L251 258Z" fill="#081a28" stroke="#081a28"></path><path d="M815.5 600L900 600L900 515Z" fill="#277297" stroke="#277297"></path><path d="M349.5 0L251 0L355.5 71Z" fill="#246688" stroke="#246688"></path><path d="M233 56L120.5 56L114.5 217Z" fill="#205a7a" stroke="#205a7a"></path><path d="M900 232L900 99L821.5 177Z" fill="#297ea6" stroke="#297ea6"></path><path d="M114.5 217L71.5 296L251 258Z" fill="#15384f" stroke="#15384f"></path><path d="M0 515L126.5 600L138.5 527Z" fill="#246688" stroke="#246688"></path><path d="M138.5 527L126.5 600L182 600Z" fill="#19435d" stroke="#19435d"></path><path d="M133.5 0L120.5 56L233 56Z" fill="#297ea6" stroke="#297ea6"></path><path d="M114.5 217L0 271L71.5 296Z" fill="#277297" stroke="#277297"></path><path d="M900 99L900 0L811.5 122Z" fill="#15384f" stroke="#15384f"></path><path d="M71.5 296L0 376L78.5 403Z" fill="#297ea6" stroke="#297ea6"></path><path d="M78.5 403L0 515L138.5 527Z" fill="#00101c" stroke="#00101c"></path><path d="M0 271L0 376L71.5 296Z" fill="#19435d" stroke="#19435d"></path><path d="M251 0L133.5 0L233 56Z" fill="#297ea6" stroke="#297ea6"></path><path d="M0 196L0 271L114.5 217Z" fill="#19435d" stroke="#19435d"></path><path d="M0 196L114.5 217L0 77Z" fill="#0c2435" stroke="#0c2435"></path><path d="M0 376L0 515L78.5 403Z" fill="#15384f" stroke="#15384f"></path><path d="M0 77L114.5 217L120.5 56Z" fill="#246688" stroke="#246688"></path><path d="M0 515L0 600L126.5 600Z" fill="#297ea6" stroke="#297ea6"></path><path d="M0 0L0 77L120.5 56Z" fill="#19435d" stroke="#19435d"></path><path d="M133.5 0L0 0L120.5 56Z" fill="#15384f" stroke="#15384f"></path></g></svg>